G04 Layer_Physical_Order=1*
G04 Layer_Color=255*
%FSLAX43Y43*%
%MOMM*%
G71*
G01*
G75*
%ADD10R,1.300X1.850*%
%ADD11R,1.500X1.350*%
%ADD12R,1.850X1.300*%
%ADD13O,5.000X3.000*%
%ADD14R,1.350X1.500*%
%ADD15R,1.650X0.650*%
%ADD16R,1.500X1.200*%
%ADD17R,1.200X1.500*%
%ADD18C,0.400*%
G36*
X38000Y0D02*
X0D01*
Y21500D01*
X38000D01*
Y0D01*
D02*
G37*
%LPC*%
G36*
X11350Y4425D02*
X10450D01*
Y3250D01*
X11350D01*
Y4425D01*
D02*
G37*
G36*
X5950Y4040D02*
X4950D01*
Y3115D01*
X5950D01*
Y4040D01*
D02*
G37*
G36*
X12750Y2750D02*
X11850D01*
Y1575D01*
X12750D01*
Y2750D01*
D02*
G37*
G36*
X20000Y6345D02*
X18925D01*
Y5770D01*
X20000D01*
Y6345D01*
D02*
G37*
G36*
X35600Y5210D02*
X34850D01*
Y3450D01*
X37585D01*
X37571Y3592D01*
X37457Y3969D01*
X37271Y4317D01*
X37021Y4621D01*
X36717Y4871D01*
X36369Y5057D01*
X35992Y5171D01*
X35600Y5210D01*
D02*
G37*
G36*
X34350D02*
X33600D01*
X33208Y5171D01*
X32831Y5057D01*
X32483Y4871D01*
X32179Y4621D01*
X31929Y4317D01*
X31743Y3969D01*
X31629Y3592D01*
X31615Y3450D01*
X34350D01*
Y5210D01*
D02*
G37*
G36*
X11350Y2750D02*
X10450D01*
Y1575D01*
X11350D01*
Y2750D01*
D02*
G37*
G36*
X16750Y1800D02*
X15900D01*
Y800D01*
X16750D01*
Y1800D01*
D02*
G37*
G36*
X28350Y1540D02*
X27350D01*
Y615D01*
X28350D01*
Y1540D01*
D02*
G37*
G36*
X26850D02*
X25850D01*
Y615D01*
X26850D01*
Y1540D01*
D02*
G37*
G36*
X37585Y2950D02*
X34850D01*
Y1190D01*
X35600D01*
X35992Y1229D01*
X36369Y1343D01*
X36717Y1529D01*
X37021Y1779D01*
X37271Y2083D01*
X37457Y2431D01*
X37571Y2808D01*
X37585Y2950D01*
D02*
G37*
G36*
X34350D02*
X31615D01*
X31629Y2808D01*
X31743Y2431D01*
X31929Y2083D01*
X32179Y1779D01*
X32483Y1529D01*
X32831Y1343D01*
X33208Y1229D01*
X33600Y1190D01*
X34350D01*
Y2950D01*
D02*
G37*
G36*
X18100Y1800D02*
X17250D01*
Y800D01*
X18100D01*
Y1800D01*
D02*
G37*
G36*
X5000Y20809D02*
X3000D01*
X2628Y20773D01*
X2269Y20664D01*
X1939Y20487D01*
X1650Y20250D01*
X1413Y19961D01*
X1236Y19631D01*
X1128Y19272D01*
X1091Y18900D01*
X1128Y18528D01*
X1236Y18169D01*
X1413Y17839D01*
X1650Y17550D01*
X1939Y17313D01*
X2269Y17136D01*
X2628Y17027D01*
X3000Y16991D01*
X5000D01*
X5372Y17027D01*
X5731Y17136D01*
X6061Y17313D01*
X6350Y17550D01*
X6587Y17839D01*
X6627Y17913D01*
X6750Y17882D01*
Y16475D01*
X7650D01*
Y17900D01*
X8150D01*
Y16475D01*
X8344D01*
X8393Y16358D01*
X8267Y16233D01*
X8135Y16034D01*
X8088Y15800D01*
Y10515D01*
X7375D01*
Y8477D01*
X6488D01*
X6343Y8622D01*
X6349Y8749D01*
X6350Y8750D01*
X6587Y9039D01*
X6764Y9369D01*
X6873Y9728D01*
X6909Y10100D01*
X6873Y10472D01*
X6764Y10831D01*
X6587Y11161D01*
X6350Y11450D01*
X6061Y11687D01*
X5731Y11864D01*
X5372Y11973D01*
X5000Y12009D01*
X3000D01*
X2628Y11973D01*
X2269Y11864D01*
X1939Y11687D01*
X1650Y11450D01*
X1413Y11161D01*
X1236Y10831D01*
X1128Y10472D01*
X1091Y10100D01*
X1128Y9728D01*
X1236Y9369D01*
X1413Y9039D01*
X1650Y8750D01*
X1939Y8513D01*
X2269Y8336D01*
X2628Y8227D01*
X3000Y8191D01*
X5000D01*
X5040Y8195D01*
X5743Y7492D01*
X5690Y7365D01*
X5050D01*
Y5465D01*
X4950D01*
Y4540D01*
X6200D01*
Y4290D01*
X6450D01*
Y3115D01*
X7350D01*
Y1675D01*
X9450D01*
Y4325D01*
X9312D01*
Y5215D01*
X10025D01*
Y5653D01*
X10350D01*
Y4675D01*
X11860D01*
X11993Y4542D01*
X11944Y4425D01*
X11850D01*
Y3250D01*
X12750D01*
Y3619D01*
X12867Y3668D01*
X13367Y3167D01*
X13566Y3035D01*
X13800Y2988D01*
X15900D01*
Y2300D01*
X17000D01*
X18100D01*
Y2988D01*
X19700D01*
X19934Y3035D01*
X20023Y3094D01*
X20150Y3026D01*
Y2475D01*
X22250D01*
Y5125D01*
X20150D01*
Y4412D01*
X19900D01*
X19666Y4365D01*
X19467Y4233D01*
X19447Y4212D01*
X18000D01*
Y5770D01*
X18425D01*
Y6595D01*
X18675D01*
Y6845D01*
X20000D01*
Y7373D01*
X20094Y7500D01*
X22035D01*
X22102Y7432D01*
X22301Y7300D01*
X22535Y7253D01*
X23100D01*
Y5870D01*
X25550D01*
Y5983D01*
X26252D01*
X26478Y5757D01*
Y4865D01*
X25950D01*
Y4412D01*
X25450D01*
Y5125D01*
X23350D01*
Y2475D01*
X25450D01*
Y3188D01*
X25950D01*
Y2965D01*
X25850D01*
Y2040D01*
X27100D01*
X28350D01*
Y2965D01*
X28250D01*
Y4865D01*
X27702D01*
Y6010D01*
X27691Y6064D01*
X27808Y6127D01*
X28667Y5267D01*
X28866Y5135D01*
X29075Y5093D01*
Y4550D01*
X31725D01*
Y6650D01*
X29075D01*
X29075Y6650D01*
Y6650D01*
X28967Y6698D01*
X27558Y8107D01*
X27621Y8224D01*
X27800Y8188D01*
X29075D01*
Y7750D01*
X31706D01*
X31728Y7528D01*
X31836Y7169D01*
X32013Y6839D01*
X32250Y6550D01*
X32539Y6313D01*
X32869Y6136D01*
X33228Y6028D01*
X33600Y5991D01*
X35600D01*
X35972Y6028D01*
X36331Y6136D01*
X36661Y6313D01*
X36950Y6550D01*
X37187Y6839D01*
X37364Y7169D01*
X37473Y7528D01*
X37509Y7900D01*
X37473Y8272D01*
X37364Y8631D01*
X37187Y8961D01*
X36950Y9250D01*
X36661Y9487D01*
X36331Y9664D01*
X35972Y9773D01*
X35600Y9809D01*
X35212D01*
Y10447D01*
X35433Y10667D01*
X35565Y10866D01*
X35612Y11100D01*
Y18900D01*
X35565Y19134D01*
X35433Y19333D01*
X35033Y19733D01*
X34834Y19865D01*
X34600Y19912D01*
X34425D01*
Y20350D01*
X31775D01*
Y19912D01*
X31600D01*
X31366Y19865D01*
X31189Y19747D01*
X31156Y19748D01*
X31123Y19758D01*
X31052Y19797D01*
X31015Y19984D01*
X30883Y20183D01*
X30533Y20533D01*
X30334Y20665D01*
X30100Y20712D01*
X25900D01*
X25666Y20665D01*
X25467Y20533D01*
X25335Y20400D01*
X23900D01*
Y18400D01*
X23900D01*
Y18300D01*
X23900D01*
Y16300D01*
X25735D01*
X26167Y15867D01*
X26366Y15735D01*
X26450Y15718D01*
Y14975D01*
X26561D01*
X26650Y14885D01*
Y13960D01*
X27900D01*
Y13460D01*
X26650D01*
Y12535D01*
X26750D01*
Y12371D01*
X26623Y12342D01*
X26212Y12753D01*
Y13800D01*
X26165Y14034D01*
X26033Y14233D01*
X25033Y15233D01*
X24834Y15365D01*
X24600Y15412D01*
X19853D01*
X16833Y18433D01*
X16634Y18565D01*
X16425Y18607D01*
Y19250D01*
X15000D01*
X13560D01*
X13458Y19207D01*
X12333Y20333D01*
X12134Y20465D01*
X11900Y20512D01*
X6100D01*
X6038Y20499D01*
X5731Y20664D01*
X5372Y20773D01*
X5000Y20809D01*
D02*
G37*
G36*
X21900Y20500D02*
X20900D01*
Y19650D01*
X21900D01*
Y20500D01*
D02*
G37*
G36*
X23400Y19150D02*
X20900D01*
Y18300D01*
Y17550D01*
X22150D01*
X23400D01*
Y18300D01*
Y19150D01*
D02*
G37*
G36*
Y17050D02*
X22400D01*
Y16200D01*
X23400D01*
Y17050D01*
D02*
G37*
G36*
X16425Y20650D02*
X15250D01*
Y19750D01*
X16425D01*
Y20650D01*
D02*
G37*
G36*
X14750D02*
X13575D01*
Y19750D01*
X14750D01*
Y20650D01*
D02*
G37*
G36*
X23400Y20500D02*
X22400D01*
Y19650D01*
X23400D01*
Y20500D01*
D02*
G37*
G36*
X21900Y17050D02*
X20900D01*
Y16200D01*
X21900D01*
Y17050D01*
D02*
G37*
G36*
X6985Y14450D02*
X4250D01*
Y12690D01*
X5000D01*
X5392Y12729D01*
X5769Y12843D01*
X6117Y13029D01*
X6421Y13279D01*
X6671Y13583D01*
X6857Y13931D01*
X6971Y14308D01*
X6985Y14450D01*
D02*
G37*
G36*
X3750D02*
X1015D01*
X1029Y14308D01*
X1143Y13931D01*
X1329Y13583D01*
X1579Y13279D01*
X1883Y13029D01*
X2231Y12843D01*
X2608Y12729D01*
X3000Y12690D01*
X3750D01*
Y14450D01*
D02*
G37*
G36*
Y16710D02*
X3000D01*
X2608Y16671D01*
X2231Y16557D01*
X1883Y16371D01*
X1579Y16121D01*
X1329Y15817D01*
X1143Y15469D01*
X1029Y15092D01*
X1015Y14950D01*
X3750D01*
Y16710D01*
D02*
G37*
G36*
X5000D02*
X4250D01*
Y14950D01*
X6985D01*
X6971Y15092D01*
X6857Y15469D01*
X6671Y15817D01*
X6421Y16121D01*
X6117Y16371D01*
X5769Y16557D01*
X5392Y16671D01*
X5000Y16710D01*
D02*
G37*
%LPD*%
G36*
X32550Y14800D02*
Y12375D01*
X32988D01*
Y12050D01*
X29315D01*
Y9850D01*
X29075D01*
Y9412D01*
X28053D01*
X27898Y9568D01*
X27720Y9687D01*
X27719Y9770D01*
X27733Y9819D01*
X27839Y9840D01*
X28038Y9972D01*
X28333Y10267D01*
X28465Y10466D01*
X28499Y10635D01*
X29050D01*
Y12445D01*
X29093Y12488D01*
X29137Y12504D01*
X29250Y12425D01*
Y12275D01*
X30150D01*
Y13700D01*
X30400D01*
Y13950D01*
X31550D01*
Y14800D01*
X32550D01*
D02*
G37*
G36*
X13367Y17567D02*
X13566Y17435D01*
X13575Y17433D01*
Y16439D01*
X13485Y16350D01*
X12255D01*
X12250Y16475D01*
X12250D01*
Y17650D01*
X11100D01*
Y18150D01*
X12250D01*
Y18519D01*
X12367Y18568D01*
X13367Y17567D01*
D02*
G37*
%LPC*%
G36*
X31550Y13450D02*
X30650D01*
Y12275D01*
X31550D01*
Y13450D01*
D02*
G37*
%LPD*%
D10*
X11600Y3000D02*
D03*
X8400D02*
D03*
X21200Y3800D02*
D03*
X24400D02*
D03*
X11400Y6000D02*
D03*
X14600D02*
D03*
X20700Y12900D02*
D03*
X23900D02*
D03*
X33600Y13700D02*
D03*
X30400D02*
D03*
X27500Y16300D02*
D03*
X30700D02*
D03*
X11100Y17900D02*
D03*
X7900D02*
D03*
D11*
X6200Y4290D02*
D03*
Y6290D02*
D03*
X27100Y1790D02*
D03*
Y3790D02*
D03*
X27900Y13710D02*
D03*
Y11710D02*
D03*
X17000Y12490D02*
D03*
Y14490D02*
D03*
D12*
X8700Y6265D02*
D03*
Y9465D02*
D03*
X11400Y13000D02*
D03*
Y9800D02*
D03*
X30400Y5600D02*
D03*
Y8800D02*
D03*
X14200Y9800D02*
D03*
Y13000D02*
D03*
X33100Y16100D02*
D03*
Y19300D02*
D03*
X15000Y16300D02*
D03*
Y19500D02*
D03*
D13*
X4000Y18900D02*
D03*
Y10100D02*
D03*
Y14700D02*
D03*
X34600Y3200D02*
D03*
Y7900D02*
D03*
D14*
X30390Y10900D02*
D03*
X32390D02*
D03*
X12410Y15200D02*
D03*
X10410D02*
D03*
D15*
X24325Y6595D02*
D03*
Y7865D02*
D03*
Y9135D02*
D03*
Y10405D02*
D03*
X18675Y6595D02*
D03*
Y7865D02*
D03*
Y9135D02*
D03*
Y10405D02*
D03*
D16*
X25050Y17300D02*
D03*
X22150D02*
D03*
X30450Y18500D02*
D03*
X27550D02*
D03*
X22150Y19400D02*
D03*
X25050D02*
D03*
D17*
X17000Y2050D02*
D03*
Y4950D02*
D03*
D18*
X18540Y8000D02*
X18675Y7865D01*
X24325Y9135D02*
X27465D01*
X24400Y3800D02*
X27090D01*
X24325Y6595D02*
X26505D01*
X27090Y6010D01*
Y3800D02*
Y6010D01*
X24325Y7865D02*
X26935D01*
X29100Y5700D01*
X32390Y10900D02*
X33300D01*
X33600Y11200D01*
Y13700D01*
X11400Y9800D02*
X14200D01*
X6200Y6290D02*
X8675D01*
X8700Y6265D01*
X17000Y12490D02*
X18210D01*
X18675Y12025D01*
Y10405D02*
Y12025D01*
X21500Y8900D02*
Y10500D01*
Y8900D02*
X22535Y7865D01*
X24325D01*
X17000Y14490D02*
X18410D01*
X24325Y10405D02*
X27605D01*
X27900Y10700D01*
Y11710D01*
X26390D02*
X27900D01*
X4000Y10100D02*
X6235Y7865D01*
X8700Y3400D02*
Y6265D01*
X19900Y3800D02*
X21200D01*
X13800Y18000D02*
X16400D01*
X11900Y19900D02*
X13800Y18000D01*
X5200Y19000D02*
X6100Y19900D01*
X8700Y9465D02*
Y15800D01*
X9500Y16600D01*
Y19900D01*
X6100D02*
X9500D01*
X11900D01*
X27465Y9135D02*
X27800Y8800D01*
X30400D01*
X29100Y5700D02*
X30300D01*
X30400Y5600D01*
Y8800D02*
Y10890D01*
X30390Y10900D02*
X30400Y10890D01*
X33100Y15400D02*
Y16100D01*
Y15400D02*
X33600Y14900D01*
Y13700D02*
Y14900D01*
X30700Y16300D02*
X31400D01*
X31600Y16100D01*
X33100D01*
X30450Y18500D02*
X30800D01*
X31600Y19300D01*
X33100D01*
X25050Y17300D02*
X25600D01*
X26600Y16300D01*
X27500D01*
X27550Y16350D02*
Y18500D01*
X27500Y16300D02*
X27550Y16350D01*
X25050Y19400D02*
X25200D01*
X30450Y18500D02*
Y19750D01*
X25200Y19400D02*
X25900Y20100D01*
X30100D01*
X30450Y19750D01*
X18410Y14490D02*
X20000Y12900D01*
X20000D01*
X20700Y13600D01*
X21500Y10500D02*
X23900Y12900D01*
X23900D01*
X25600Y12500D02*
X26390Y11710D01*
X25600Y12500D02*
Y13800D01*
X16400Y18000D02*
X19600Y14800D01*
X24600D01*
X25600Y13800D01*
X34600Y7900D02*
Y10700D01*
X35000Y11100D01*
Y18900D01*
X34600Y19300D02*
X35000Y18900D01*
X33100Y19300D02*
X34600D01*
X27900Y13710D02*
X27910Y13700D01*
X30400D01*
X14600Y6000D02*
X15950D01*
X17000Y4950D01*
X11400Y6000D02*
X13800Y3600D01*
X19700D01*
X19900Y3800D01*
X8700Y6265D02*
X11400D01*
X14600Y6000D02*
Y7865D01*
X14600Y7865D02*
X14600Y7865D01*
X6235Y7865D02*
X14600D01*
X18675D01*
X16965Y9135D02*
X18675D01*
X16300Y9800D02*
X16965Y9135D01*
X14200Y9800D02*
X16300D01*
X11400Y12000D02*
Y13000D01*
Y12000D02*
X12000Y11400D01*
X15910D01*
X17000Y12490D01*
X12410Y15200D02*
X13310Y14300D01*
X13900D01*
X14200Y14000D01*
Y13000D02*
Y14000D01*
X14000Y16300D02*
X15000D01*
X12900Y17400D02*
X14000Y16300D01*
X10410Y15200D02*
Y15910D01*
X11100Y16600D01*
Y17900D01*
M02*
